<?xml version="1.0" encoding="utf-8"?>
<!-- Generator: Adobe Illustrator 22.1.0, SVG Export Plug-In . SVG Version: 6.00 Build 0)  -->
<svg version="1.1" xmlns="http://www.w3.org/2000/svg" xmlns:xlink="http://www.w3.org/1999/xlink" x="0px" y="0px"
	 viewBox="0 0 1920 1080" style="enable-background:new 0 0 1920 1080;" xml:space="preserve">
<style type="text/css">
	.st0{fill:#999999;}
</style>
<g id="for">
	<path class="st0" d="M975.5,530h-8c-1.7,0-3-1.3-3-3V412c0-1.6,1.3-3,3-3h8c1.7,0,3,1.4,3,3v115C978.5,528.7,977.2,530,975.5,530z"
		/>
	<path class="st0" d="M975.5,204h-8c-1.7,0-3-1.4-3-3V86c0-1.7,1.3-3,3-3h8c1.7,0,3,1.3,3,3v115C978.5,202.6,977.2,204,975.5,204z"
		/>
	<path id="hhoved" class="st0" d="M957,83.1c-23.9,1.6-43,21.6-43,45.9l7,49c0,14.3,4.7,26,19,26h17V83.1z"/>
	<path id="vhoved" class="st0" d="M986,83.2V204h16c14.3,0,19-11.7,19-26l7-49C1028,105,1009.4,85.2,986,83.2z"/>
	<path class="st0" d="M975.5,241h-8c-1.7,0-3-1.4-3-3v-23c0-1.6,1.3-3,3-3h8c1.7,0,3,1.4,3,3v23C978.5,239.6,977.2,241,975.5,241z"
		/>
	<path id="vhals_4_" class="st0" d="M993.9,211.8H986v29.3h7.9c6.6,0,12-5.4,12-12v-5.3C1005.9,217.2,1000.5,211.8,993.9,211.8z"/>
	<path id="hhals" class="st0" d="M957,211.8h-8.9c-6.6,0-12,5.4-12,12v5.3c0,6.6,5.4,12,12,12h8.9V211.8z"/>
	<path class="st0" d="M975.5,402h-8c-1.7,0-3-1.4-3-3V252c0-1.6,1.3-3,3-3h8c1.7,0,3,1.4,3,3v147C978.5,400.6,977.2,402,975.5,402z"
		/>
	<path id="vthorax" class="st0" d="M1033.5,249H986v153h14.1c25,0,45.4-20.4,45.4-45.4V261C1045.5,254.4,1040.1,249,1033.5,249z"/>
	<path id="habdomen" class="st0" d="M957,409h-15.1c-25,0-45.4,20.4-45.4,45.4V518c0,6.6,5.4,12,12,12H957V409z"/>
	<path id="vabdomen_4_" class="st0" d="M1000.1,409H986v121h47.5c6.6,0,12-5.4,12-12v-63.6C1045.5,429.4,1025.1,409,1000.1,409z"/>
	<path id="hthorax" class="st0" d="M957,249h-48.5c-6.6,0-12,5.4-12,12v95.6c0,25,20.4,45.4,45.4,45.4H957V249z"/>
</g>
<g id="begge">
	<path id="hoverarm" class="st0" d="M859.9,424.7l-7-0.7c-6.6-0.7-11.4-6.6-10.7-13.2l16-151.4c0.7-6.6,6.6-11.4,13.2-10.7l7,0.7
		c6.6,0.7,11.4,6.6,10.7,13.2l-16,151.4C872.4,420.6,866.5,425.4,859.9,424.7z"/>
	<path id="hunderarm" class="st0" d="M847.3,571.1l-0.9,0c-6.6-0.3-11.7-5.9-11.5-12.5l5.1-115.4c0.3-6.6,5.9-11.7,12.5-11.5l0.9,0
		c6.6,0.3,11.7,5.9,11.5,12.5l-5.1,115.4C859.5,566.2,853.9,571.4,847.3,571.1z"/>
	<path id="hhand" class="st0" d="M851.7,626.9l-0.9,0.1c-6.6,0.4-12.3-4.6-12.8-11.2l-1.6-24.9c-0.4-6.6,4.6-12.3,11.2-12.8l0.9-0.1
		c6.6-0.4,12.3,4.6,12.8,11.2l1.6,24.9C863.3,620.7,858.2,626.4,851.7,626.9z"/>
	<path id="voverarm_3_" class="st0" d="M1083.2,424.7l7-0.7c6.6-0.7,11.4-6.6,10.7-13.2l-16-151.4c-0.7-6.6-6.6-11.4-13.2-10.7
		l-7,0.7c-6.6,0.7-11.4,6.6-10.7,13.2l16,151.4C1070.7,420.6,1076.6,425.4,1083.2,424.7z"/>
	<path id="vunderarm_3_" class="st0" d="M1095.8,571.1l0.9,0c6.6-0.3,11.7-5.9,11.5-12.5l-5.1-115.4c-0.3-6.6-5.9-11.7-12.5-11.5
		l-0.9,0c-6.6,0.3-11.7,5.9-11.5,12.5l5.1,115.4C1083.6,566.2,1089.2,571.4,1095.8,571.1z"/>
	<path id="vhand_3_" class="st0" d="M1091.4,626.9l0.9,0.1c6.6,0.4,12.3-4.6,12.8-11.2l1.6-24.9c0.4-6.6-4.6-12.3-11.2-12.8
		l-0.9-0.1c-6.6-0.4-12.3,4.6-12.8,11.2l-1.6,24.9C1079.8,620.7,1084.8,626.4,1091.4,626.9z"/>
	<path id="hlar" class="st0" d="M925.2,743.4l-18.1-0.8c-6.6-0.3-11.7-5.9-11.5-12.5l8.1-182c0.3-6.6,5.9-11.7,12.5-11.5l18.1,0.8
		c6.6,0.3,11.7,5.9,11.5,12.5l-8.1,182C937.5,738.6,931.8,743.7,925.2,743.4z"/>
	<path id="hunderben" class="st0" d="M923,939.1h-14.2c-6.6,0-12-5.4-12-12V762c0-6.6,5.4-12,12-12H923c6.6,0,12,5.4,12,12v165.1
		C935,933.7,929.6,939.1,923,939.1z"/>
	<path id="hfod" class="st0" d="M850.4,989l-2.4-6.5c-2.3-6.2,1-13.1,7.2-15.4l55.2-20c6.2-2.3,13.1,1,15.4,7.2l2.4,6.5
		c2.3,6.2-1,13.1-7.2,15.4l-55.2,20C859.6,998.5,852.7,995.2,850.4,989z"/>
	<path id="vlar_3_" class="st0" d="M1017,743.4l18.1-0.8c6.6-0.3,11.7-5.9,11.5-12.5l-8.1-182c-0.3-6.6-5.9-11.7-12.5-11.5
		l-18.1,0.8c-6.6,0.3-11.7,5.9-11.5,12.5l8.1,182C1004.8,738.6,1010.4,743.7,1017,743.4z"/>
	<path id="vunderben_3_" class="st0" d="M1019.2,939.1h14.2c6.6,0,12-5.4,12-12V762c0-6.6-5.4-12-12-12h-14.2c-6.6,0-12,5.4-12,12
		v165.1C1007.2,933.7,1012.6,939.1,1019.2,939.1z"/>
	<path id="vfod_3_" class="st0" d="M1091.8,989l2.4-6.5c2.3-6.2-1-13.1-7.2-15.4l-55.2-20c-6.2-2.3-13.1,1-15.4,7.2l-2.4,6.5
		c-2.3,6.2,1,13.1,7.2,15.4l55.2,20C1082.7,998.5,1089.6,995.2,1091.8,989z"/>
</g>
<g id="bag">
	<path class="st0" d="M1266.5,531h-8c-1.7,0-3-1.3-3-3V413c0-1.6,1.3-3,3-3h8c1.7,0,3,1.4,3,3v115
		C1269.5,529.7,1268.2,531,1266.5,531z"/>
	<path id="vrygabdomen" class="st0" d="M1248,410h-15.1c-25,0-45.4,20.4-45.4,45.4V519c0,6.6,5.4,12,12,12h48.5V410z"/>
	<path id="hrygabdomen" class="st0" d="M1291.1,410H1277v121h47.5c6.6,0,12-5.4,12-12v-63.6C1336.5,430.4,1316.1,410,1291.1,410z"/>
	<path class="st0" d="M1266.5,403h-8c-1.7,0-3-1.4-3-3V253c0-1.6,1.3-3,3-3h8c1.7,0,3,1.4,3,3v147
		C1269.5,401.6,1268.2,403,1266.5,403z"/>
	<path id="vrygthorax" class="st0" d="M1248,250h-48.5c-6.6,0-12,5.4-12,12v95.6c0,25,20.4,45.4,45.4,45.4h15.1V250z"/>
	<path id="hrygthorax" class="st0" d="M1324.5,250H1277v153h14.1c25,0,45.4-20.4,45.4-45.4V262C1336.5,255.4,1331.1,250,1324.5,250z
		"/>
	<path class="st0" d="M1266.5,242h-8c-1.7,0-3-1.4-3-3v-23c0-1.6,1.3-3,3-3h8c1.7,0,3,1.4,3,3v23
		C1269.5,240.6,1268.2,242,1266.5,242z"/>
	<path id="vryghals" class="st0" d="M1248,212.8h-8.9c-6.6,0-12,5.4-12,12v5.3c0,6.6,5.4,12,12,12h8.9V212.8z"/>
	<path id="hryghals" class="st0" d="M1284.9,212.8h-7.9v29.3h7.9c6.6,0,12-5.4,12-12v-5.3C1296.9,218.2,1291.5,212.8,1284.9,212.8z"
		/>
	<path class="st0" d="M1266.5,205h-8c-1.7,0-3-1.4-3-3V87c0-1.7,1.3-3,3-3h8c1.7,0,3,1.3,3,3v115
		C1269.5,203.6,1268.2,205,1266.5,205z"/>
	<path id="vryghoved" class="st0" d="M1248,84.1c-23.9,1.6-43,21.6-43,45.9l7,49c0,14.3,4.7,26,19,26h17V84.1z"/>
	<path id="hryghoved" class="st0" d="M1277,84.2V205h16c14.3,0,19-11.7,19-26l7-49C1319,106,1300.4,86.2,1277,84.2z"/>
</g>
</svg>
