<?xml version="1.0" encoding="utf-8"?>
<!-- Generator: Adobe Illustrator 22.1.0, SVG Export Plug-In . SVG Version: 6.00 Build 0)  -->
<svg version="1.1" xmlns="http://www.w3.org/2000/svg" xmlns:xlink="http://www.w3.org/1999/xlink" x="0px" y="0px"
	 viewBox="0 0 1920 1080" style="enable-background:new 0 0 1920 1080;" xml:space="preserve">
<style type="text/css">
	.st0{fill:#999999;}
</style>
<g id="vryghoved">
	<path id="hhoved" class="st0" d="M957,83.1c-23.9,1.6-43,21.6-43,45.9l7,49c0,14.3,4.7,26,19,26h17V83.1z"/>
	<path id="hhoved_2_" class="st0" d="M1514,83.1c-23.9,1.6-43,21.6-43,45.9l7,49c0,14.3,4.7,26,19,26h17V83.1z"/>
</g>
<g id="hryghoved">
	<path id="vhoved" class="st0" d="M964,83.2V204h16c14.3,0,19-11.7,19-26l7-49C1006,105,987.4,85.2,964,83.2z"/>
	<path id="vhoved_2_" class="st0" d="M1521,83.2V204h16c14.3,0,19-11.7,19-26l7-49C1563,105,1544.4,85.2,1521,83.2z"/>
</g>
<g id="hryghals">
	<path id="vhals" class="st0" d="M971.9,211.8H964v29.3h7.9c6.6,0,12-5.4,12-12v-5.3C983.9,217.2,978.5,211.8,971.9,211.8z"/>
	<path id="vhals_2_" class="st0" d="M1528.9,211.8h-7.9v29.3h7.9c6.6,0,12-5.4,12-12v-5.3C1540.9,217.2,1535.5,211.8,1528.9,211.8z"
		/>
</g>
<g id="vryghals">
	<path id="hhals" class="st0" d="M957,211.8h-8.9c-6.6,0-12,5.4-12,12v5.3c0,6.6,5.4,12,12,12h8.9V211.8z"/>
	<path id="hhals_2_" class="st0" d="M1514,211.8h-8.9c-6.6,0-12,5.4-12,12v5.3c0,6.6,5.4,12,12,12h8.9V211.8z"/>
</g>
<g id="hrygthorax">
	<path id="vthorax" class="st0" d="M1011.5,249H964v153h14.1c25,0,45.4-20.4,45.4-45.4V261C1023.5,254.4,1018.1,249,1011.5,249z"/>
	<path id="vthorax_2_" class="st0" d="M1568.5,249H1521v153h14.1c25,0,45.4-20.4,45.4-45.4V261C1580.5,254.4,1575.1,249,1568.5,249z
		"/>
</g>
<g id="vrygabdomen">
	<path id="habdomen" class="st0" d="M957,409h-15.1c-25,0-45.4,20.4-45.4,45.4V518c0,6.6,5.4,12,12,12H957V409z"/>
	<path id="habdomen_2_" class="st0" d="M1514,409h-15.1c-25,0-45.4,20.4-45.4,45.4V518c0,6.6,5.4,12,12,12h48.5V409z"/>
</g>
<g id="hrygabdomen">
	<path id="vabdomen" class="st0" d="M978.1,409H964v121h47.5c6.6,0,12-5.4,12-12v-63.6C1023.5,429.4,1003.1,409,978.1,409z"/>
	<path id="vabdomen_2_" class="st0" d="M1535.1,409H1521v121h47.5c6.6,0,12-5.4,12-12v-63.6C1580.5,429.4,1560.1,409,1535.1,409z"/>
</g>
<g id="vrygthorax">
	<path id="hthorax" class="st0" d="M957,249h-48.5c-6.6,0-12,5.4-12,12v95.6c0,25,20.4,45.4,45.4,45.4H957V249z"/>
	<path id="hthorax_2_" class="st0" d="M1514,249h-48.5c-6.6,0-12,5.4-12,12v95.6c0,25,20.4,45.4,45.4,45.4h15.1V249z"/>
</g>
<g id="hoverarm_1_">
	<path id="hoverarm" class="st0" d="M859.9,424.7l-7-0.7c-6.6-0.7-11.4-6.6-10.7-13.2l16-151.4c0.7-6.6,6.6-11.4,13.2-10.7l7,0.7
		c6.6,0.7,11.4,6.6,10.7,13.2l-16,151.4C872.4,420.6,866.5,425.4,859.9,424.7z"/>
</g>
<g id="hunderarm_1_">
	<path id="hunderarm" class="st0" d="M847.3,571.1l-0.9,0c-6.6-0.3-11.7-5.9-11.5-12.5l5.1-115.4c0.3-6.6,5.9-11.7,12.5-11.5l0.9,0
		c6.6,0.3,11.7,5.9,11.5,12.5l-5.1,115.4C859.5,566.2,853.9,571.4,847.3,571.1z"/>
</g>
<g id="hhand_1_">
	<path id="hhand" class="st0" d="M851.7,626.9l-0.9,0.1c-6.6,0.4-12.3-4.6-12.8-11.2l-1.6-24.9c-0.4-6.6,4.6-12.3,11.2-12.8l0.9-0.1
		c6.6-0.4,12.3,4.6,12.8,11.2l1.6,24.9C863.3,620.7,858.2,626.4,851.7,626.9z"/>
</g>
<g id="voverarm_1_">
	<path id="voverarm" class="st0" d="M1061.2,424.7l7-0.7c6.6-0.7,11.4-6.6,10.7-13.2l-16-151.4c-0.7-6.6-6.6-11.4-13.2-10.7l-7,0.7
		c-6.6,0.7-11.4,6.6-10.7,13.2l16,151.4C1048.7,420.6,1054.6,425.4,1061.2,424.7z"/>
</g>
<g id="vunderarm_1_">
	<path id="vunderarm" class="st0" d="M1073.8,571.1l0.9,0c6.6-0.3,11.7-5.9,11.5-12.5l-5.1-115.4c-0.3-6.6-5.9-11.7-12.5-11.5
		l-0.9,0c-6.6,0.3-11.7,5.9-11.5,12.5l5.1,115.4C1061.6,566.2,1067.2,571.4,1073.8,571.1z"/>
</g>
<g id="vhand_1_">
	<path id="vhand" class="st0" d="M1069.4,626.9l0.9,0.1c6.6,0.4,12.3-4.6,12.8-11.2l1.6-24.9c0.4-6.6-4.6-12.3-11.2-12.8l-0.9-0.1
		c-6.6-0.4-12.3,4.6-12.8,11.2l-1.6,24.9C1057.8,620.7,1062.8,626.4,1069.4,626.9z"/>
</g>
<g id="hlar_1_">
	<path id="hlar" class="st0" d="M925.2,743.4l-18.1-0.8c-6.6-0.3-11.7-5.9-11.5-12.5l8.1-182c0.3-6.6,5.9-11.7,12.5-11.5l18.1,0.8
		c6.6,0.3,11.7,5.9,11.5,12.5l-8.1,182C937.5,738.6,931.8,743.7,925.2,743.4z"/>
</g>
<g id="hunderben_1_">
	<path id="hunderben" class="st0" d="M923,939.1h-14.2c-6.6,0-12-5.4-12-12V762c0-6.6,5.4-12,12-12H923c6.6,0,12,5.4,12,12v165.1
		C935,933.7,929.6,939.1,923,939.1z"/>
</g>
<g id="hfod_1_">
	<path id="hfod" class="st0" d="M850.4,989l-2.4-6.5c-2.3-6.2,1-13.1,7.2-15.4l55.2-20c6.2-2.3,13.1,1,15.4,7.2l2.4,6.5
		c2.3,6.2-1,13.1-7.2,15.4l-55.2,20C859.6,998.5,852.7,995.2,850.4,989z"/>
</g>
<g id="vlar_1_">
	<path id="vlar" class="st0" d="M995,743.4l18.1-0.8c6.6-0.3,11.7-5.9,11.5-12.5l-8.1-182c-0.3-6.6-5.9-11.7-12.5-11.5l-18.1,0.8
		c-6.6,0.3-11.7,5.9-11.5,12.5l8.1,182C982.8,738.6,988.4,743.7,995,743.4z"/>
</g>
<g id="vunderben_1_">
	<path id="vunderben" class="st0" d="M997.2,939.1h14.2c6.6,0,12-5.4,12-12V762c0-6.6-5.4-12-12-12h-14.2c-6.6,0-12,5.4-12,12v165.1
		C985.2,933.7,990.6,939.1,997.2,939.1z"/>
</g>
<g id="vfod_1_">
	<path id="vfod" class="st0" d="M1069.8,989l2.4-6.5c2.3-6.2-1-13.1-7.2-15.4l-55.2-20c-6.2-2.3-13.1,1-15.4,7.2l-2.4,6.5
		c-2.3,6.2,1,13.1,7.2,15.4l55.2,20C1060.7,998.5,1067.6,995.2,1069.8,989z"/>
</g>
</svg>
