<?xml version="1.0" encoding="utf-8"?>
<!-- Generator: Adobe Illustrator 22.1.0, SVG Export Plug-In . SVG Version: 6.00 Build 0)  -->
<svg version="1.1" xmlns="http://www.w3.org/2000/svg" xmlns:xlink="http://www.w3.org/1999/xlink" x="0px" y="0px"
	 viewBox="0 0 1920 1080" style="enable-background:new 0 0 1920 1080;" xml:space="preserve">
<style type="text/css">
	.st0{display:none;}
	.st1{display:inline;}
	.st2{fill:#999999;}
	.st3{fill:#666666;}
	.st4{fill:#4D4D4D;}
	.st5{fill:#B3B3B3;}
	.st6{fill:#CCCCCC;}
	.st7{fill:#E6E6E6;}
</style>
<g id="Layer_21" class="st0">
	<g class="st1">
		<path id="hlar" class="st2" d="M1209.1,747.9l-11.4-0.5c-6.6-0.3-11.7-5.9-11.5-12.5l6.7-149.4c0.3-6.6,5.9-11.7,12.5-11.5
			l11.4,0.5c6.6,0.3,11.7,5.9,11.5,12.5l-6.7,149.4C1221.3,743.1,1215.7,748.2,1209.1,747.9z"/>
		<path id="hunderben" class="st2" d="M1207.2,912.8h-8.1c-6.6,0-12-5.4-12-12V765.6c0-6.6,5.4-12,12-12h8.1c6.6,0,12,5.4,12,12
			v135.2C1219.2,907.4,1213.8,912.8,1207.2,912.8z"/>
		<path id="hfod" class="st2" d="M1147.3,953l-0.7-1.9c-2.3-6.2,1-13.1,7.2-15.4l42.9-15.6c6.2-2.3,13.1,1,15.4,7.2l0.7,1.9
			c2.3,6.2-1,13.1-7.2,15.4l-42.9,15.6C1156.5,962.4,1149.6,959.2,1147.3,953z"/>
		<path id="vlar_3_" class="st2" d="M1290.1,747.9l11.4-0.5c6.6-0.3,11.7-5.9,11.5-12.5l-6.7-149.4c-0.3-6.6-5.9-11.7-12.5-11.5
			l-11.4,0.5c-6.6,0.3-11.7,5.9-11.5,12.5l6.7,149.4C1277.9,743.1,1283.5,748.2,1290.1,747.9z"/>
		<path id="vunderben_3_" class="st2" d="M1291.9,912.8h8.1c6.6,0,12-5.4,12-12V765.6c0-6.6-5.4-12-12-12h-8.1c-6.6,0-12,5.4-12,12
			v135.2C1279.9,907.4,1285.3,912.8,1291.9,912.8z"/>
		<path id="vfod_3_" class="st2" d="M1351.8,953l0.7-1.9c2.3-6.2-1-13.1-7.2-15.4l-42.9-15.6c-6.2-2.3-13.1,1-15.4,7.2l-0.7,1.9
			c-2.3,6.2,1,13.1,7.2,15.4l42.9,15.6C1342.7,962.4,1349.6,959.2,1351.8,953z"/>
		<path id="hoverarm" class="st2" d="M1154.1,479.5l-2.1-0.2c-6.6-0.7-11.4-6.6-10.7-13.2l13.1-123.7c0.7-6.6,6.6-11.4,13.2-10.7
			l2.1,0.2c6.6,0.7,11.4,6.6,10.7,13.2l-13.1,123.7C1166.6,475.4,1160.6,480.2,1154.1,479.5z"/>
		<path id="hunderarm" class="st2" d="M1144.9,602.9L1144.9,602.9c-5.8-0.3-10.3-5.2-10-11l4.3-96.3c0.3-5.8,5.2-10.3,11-10l0,0
			c5.8,0.3,10.3,5.2,10,11l-4.3,96.3C1155.6,598.7,1150.7,603.2,1144.9,602.9z"/>
		<path id="hhand" class="st2" d="M1148.6,649.9L1148.6,649.9c-5.8,0.4-10.8-4-11.2-9.8l-1.3-20.2c-0.4-5.8,4-10.8,9.8-11.2l0,0
			c5.8-0.4,10.8,4,11.2,9.8l1.3,20.2C1158.8,644.5,1154.4,649.5,1148.6,649.9z"/>
		<path id="voverarm_3_" class="st2" d="M1345.8,479.5l2.1-0.2c6.6-0.7,11.4-6.6,10.7-13.2l-13.1-123.7c-0.7-6.6-6.6-11.4-13.2-10.7
			l-2.1,0.2c-6.6,0.7-11.4,6.6-10.7,13.2l13.1,123.7C1333.3,475.4,1339.2,480.2,1345.8,479.5z"/>
		<path id="vunderarm_3_" class="st2" d="M1354.9,602.9L1354.9,602.9c5.8-0.3,10.3-5.2,10-11l-4.3-96.3c-0.3-5.8-5.2-10.3-11-10l0,0
			c-5.8,0.3-10.3,5.2-10,11l4.3,96.3C1344.2,598.7,1349.2,603.2,1354.9,602.9z"/>
		<path id="vhand_3_" class="st2" d="M1351.3,649.9L1351.3,649.9c5.8,0.4,10.8-4,11.2-9.8l1.3-20.2c0.4-5.8-4-10.8-9.8-11.2l0,0
			c-5.8-0.4-10.8,4-11.2,9.8l-1.3,20.2C1341.1,644.5,1345.5,649.5,1351.3,649.9z"/>
		<path class="st2" d="M1252.8,568.3h-5.8c-1.7,0-3-1.3-3-3v-95.9c0-1.6,1.3-3,3-3h5.8c1.7,0,3,1.4,3,3v95.9
			C1255.8,567,1254.4,568.3,1252.8,568.3z"/>
		<path id="habdomen" class="st2" d="M1237.7,466.5H1225c-21,0-38.2,17.2-38.2,38.2v53.5c0,5.6,4.5,10.1,10.1,10.1h40.8V466.5z"/>
		<path id="vabdomen_4_" class="st2" d="M1274,466.5h-11.9v101.9h40c5.6,0,10.1-4.5,10.1-10.1v-53.5
			C1312.2,483.7,1295,466.5,1274,466.5z"/>
		<path class="st2" d="M1252.8,460.6h-5.8c-1.7,0-3-1.4-3-3V334.8c0-1.6,1.3-3,3-3h5.8c1.7,0,3,1.4,3,3v122.8
			C1255.8,459.2,1254.4,460.6,1252.8,460.6z"/>
		<path id="vthorax" class="st2" d="M1302.1,331.8h-40v128.8h11.9c21,0,38.2-17.2,38.2-38.2v-80.5
			C1312.2,336.3,1307.7,331.8,1302.1,331.8z"/>
		<path id="hthorax" class="st2" d="M1237.7,331.8h-40.8c-5.6,0-10.1,4.5-10.1,10.1v80.5c0,21,17.2,38.2,38.2,38.2h12.7V331.8z"/>
		<path class="st2" d="M1252.8,325h-5.8c-1.7,0-3-1.4-3-3v-18.4c0-1.7,1.3-3,3-3h5.8c1.7,0,3,1.3,3,3V322
			C1255.8,323.7,1254.4,325,1252.8,325z"/>
		<path id="vhals_4_" class="st2" d="M1268.8,300.5h-6.7v24.7h6.7c5.6,0,10.1-4.5,10.1-10.1v-4.5
			C1278.9,305,1274.3,300.5,1268.8,300.5z"/>
		<path id="hhals" class="st2" d="M1237.7,300.5h-7.5c-5.6,0-10.1,4.5-10.1,10.1v4.5c0,5.6,4.5,10.1,10.1,10.1h7.5V300.5z"/>
		<path class="st2" d="M1252.8,293.9h-5.8c-1.7,0-3-1.3-3-3V195c0-1.6,1.3-3,3-3h5.8c1.7,0,3,1.4,3,3v95.9
			C1255.8,292.5,1254.4,293.9,1252.8,293.9z"/>
		<path id="hhoved" class="st2" d="M1237.7,192.1c-20.1,1.3-36.2,18.2-36.2,38.6l5.9,41.3c0,12,4,21.9,16,21.9h14.3V192.1z"/>
		<path id="vhoved" class="st2" d="M1262.1,192.2v101.7h13.5c12,0,16-9.9,16-21.9l5.9-41.3C1297.5,210.6,1281.9,193.9,1262.1,192.2z
			"/>
	</g>
</g>
<g id="Pancreas">
	<path id="pancreas_1_" class="st2" d="M559.2,655.1l-56,16.8c-4.8,1.4-9.9-1.3-11.3-6.1l-0.4-1.3c-1.4-4.8,1.3-9.9,6.1-11.3
		l56-16.8c4.8-1.4,9.9,1.3,11.3,6.1l0.4,1.3C566.8,648.6,564,653.7,559.2,655.1z"/>
</g>
<g id="Urogenital">
	<path class="st3" d="M518.7,852.5h-15c-12.1,0-22-9.9-22-22v-11c0-6.6,5.4-12,12-12h35c6.6,0,12,5.4,12,12v11
		C540.7,842.6,530.8,852.5,518.7,852.5z"/>
</g>
<g id="Kidneys">
	<path class="st3" d="M481.2,707.8h-5.9c-7.7,0-14-6.3-14-14v-18.1c0-7.7,6.3-14,14-14h5.9c4.4,0,8,3.6,8,8v30.1
		C489.2,704.2,485.6,707.8,481.2,707.8z"/>
	<path class="st3" d="M537.9,707.8h5.9c7.7,0,14-6.3,14-14v-18.1c0-7.7-6.3-14-14-14h-5.9c-4.4,0-8,3.6-8,8v30.1
		C529.9,704.2,533.5,707.8,537.9,707.8z"/>
</g>
<g id="Liver">
	<path id="liver_1_" class="st4" d="M528.6,634.3v-30.7c0-4.1-3.4-7.5-7.5-7.5H464c-19.3,0-35.1,15.8-35.1,35.1v3.1
		c0,4.1,3.4,7.5,7.5,7.5h84.7C525.2,641.8,528.6,638.4,528.6,634.3z"/>
</g>
<g id="Spleen">
	<path id="spleen_1_" class="st3" d="M556.1,639.6h22.4c5.2,0,9.5-4.3,9.5-9.5v-2.8c0-16-13.1-29.1-29.1-29.1h-2.8
		c-5.2,0-9.5,4.3-9.5,9.5v22.4C546.6,635.3,550.9,639.6,556.1,639.6z"/>
</g>
<g id="Esophagus">
	<path id="esophagus_2_" class="st5" d="M521.4,611h-2.6c-2.9,0-5.3-2.4-5.3-5.3V435.6c0-2.9,2.4-5.3,5.3-5.3h2.6
		c2.9,0,5.3,2.4,5.3,5.3v170.1C526.7,608.6,524.3,611,521.4,611z"/>
</g>
<g id="Stomach">
	<path id="stomach_1_" class="st6" d="M531.4,646.9l-50.5,36.5c-7.2,5.2-17.4,3.6-22.7-3.7l-1.4-1.9c-5.2-7.2-3.6-17.4,3.7-22.7
		l50.5-36.5c7.2-5.2,17.4-3.6,22.7,3.7l1.4,1.9C540.3,631.4,538.7,641.6,531.4,646.9z"/>
</g>
<g id="Intestines">
	<path class="st5" d="M443.7,774.7v6.7h-0.1c-0.8,0-1.4,0.6-1.4,1.4v4c0,0.8,0.6,1.4,1.4,1.4h0.1v6.2h-13.3v-19.7H443.7z"/>
	<path class="st5" d="M453.6,721.6h-0.9c-3.4,0-6.1-2.8-6.1-6.1v-24.9c0-3.4,2.8-6.1,6.1-6.1h0.9c3.4,0,6.1,2.8,6.1,6.1v24.9
		C459.7,718.9,457,721.6,453.6,721.6z"/>
	<path class="st5" d="M557.1,825.6h-0.9c-3.4,0-6.1-2.8-6.1-6.1v-24.9c0-3.4,2.8-6.1,6.1-6.1h0.9c3.4,0,6.1,2.8,6.1,6.1v24.9
		C563.2,822.9,560.5,825.6,557.1,825.6z"/>
	<path class="st5" d="M588.9,714.6v0.9c0,3.4-2.8,6.1-6.1,6.1H452.6c-3.4,0-6.1-2.8-6.1-6.1v-0.9c0-3.4,2.8-6.1,6.1-6.1h130.1
		C586.1,708.5,588.9,711.3,588.9,714.6z"/>
	<path class="st5" d="M588.9,734.5v0.9c0,3.4-2.8,6.1-6.1,6.1H436.5c-3.4,0-6.1-2.8-6.1-6.1v-0.9c0-3.4,2.8-6.1,6.1-6.1h146.3
		C586.1,728.4,588.9,731.1,588.9,734.5z"/>
	<path class="st5" d="M588.9,774.4v0.9c0,3.4-2.8,6.1-6.1,6.1H436.5c-3.4,0-6.1-2.8-6.1-6.1v-0.9c0-3.4,2.8-6.1,6.1-6.1h146.3
		C586.1,768.2,588.9,771,588.9,774.4z"/>
	<path class="st5" d="M588.9,754.4v0.9c0,3.4-2.8,6.1-6.1,6.1H436.5c-3.4,0-6.1-2.8-6.1-6.1v-0.9c0-3.4,2.8-6.1,6.1-6.1h146.3
		C586.1,748.3,588.9,751,588.9,754.4z"/>
	<path class="st5" d="M563.2,794.2v0.9c0,3.4-2.8,6.1-6.1,6.1H436.5c-3.4,0-6.1-2.8-6.1-6.1v-0.9c0-3.4,2.8-6.1,6.1-6.1h120.6
		C560.5,788.1,563.2,790.9,563.2,794.2z"/>
	<path class="st5" d="M575.6,714.9v6.7h0.1c0.8,0,1.4,0.6,1.4,1.4v4c0,0.8-0.6,1.4-1.4,1.4h-0.1v6.2h13.3v-19.7H575.6z"/>
	<path class="st5" d="M575.6,754.5v6.8h0.1c0.8,0,1.4,0.6,1.4,1.4v4c0,0.8-0.6,1.4-1.4,1.4h-0.1v6.3h13.3v-20.1H575.6z"/>
	<path class="st5" d="M443.7,734.8v6.7h-0.1c-0.8,0-1.4,0.6-1.4,1.4v4c0,0.8,0.6,1.4,1.4,1.4h0.1v6.2h-13.3v-19.7H443.7z"/>
</g>
<g id="Vessel_legs">
	<path class="st3" d="M851.4,629L851.4,629c-3.3-0.2-6.1,2.3-6.4,5.5l-12.8,183.2c-0.2,3.3,2.3,6.1,5.5,6.4h0
		c3.3,0.2,6.1-2.3,6.4-5.5L857,635.4C857.2,632.1,854.7,629.2,851.4,629z"/>
	<path class="st3" d="M920.9,824.1L920.9,824.1c-3.3,0.2-6.1-2.3-6.4-5.5l-12.8-183.6c-0.2-3.3,2.3-6.1,5.5-6.4h0
		c3.3-0.2,6.1,2.3,6.4,5.5l12.8,183.6C926.6,821.1,924.2,823.9,920.9,824.1z"/>
</g>
<g id="Vessel_arms">
	<path class="st3" d="M805.1,367.7L805.1,367.7c-3.3-0.4-6.2,2-6.6,5.2l-16.8,144c-0.4,3.3,2,6.2,5.2,6.6h0c3.3,0.4,6.2-2,6.6-5.2
		l16.8-144C810.7,371,808.4,368,805.1,367.7z"/>
	<path class="st3" d="M952.9,367.7L952.9,367.7c3.3-0.4,6.2,2,6.6,5.2l16.8,144c0.4,3.3-2,6.2-5.2,6.6h0c-3.3,0.4-6.2-2-6.6-5.2
		l-16.8-144C947.3,371,949.7,368,952.9,367.7z"/>
</g>
<g id="Cranium">
	<path class="st3" d="M164,246h-47.9c-5.6,0-10.1,4.5-10.1,10.1V315c0,5.6,4.5,10.1,10.1,10.1H164c5.6,0,10.1-4.5,10.1-10.1v-58.9
		C174.1,250.5,169.6,246,164,246z"/>
</g>
<g id="Pelvis">
	<path class="st3" d="M177.5,503.4h-74.9c-5.6,0-10.1,4.5-10.1,10.1v32.8c0,5.6,4.5,10.1,10.1,10.1h74.9c5.6,0,10.1-4.5,10.1-10.1
		v-32.8C187.6,507.9,183,503.4,177.5,503.4z"/>
</g>
<g id="Knoglehuller">
	<path class="st6" d="M126.2,541.6c0,2.5-2.1,4.6-4.6,4.6s-4.6-2.1-4.6-4.6v-5.9c0-2.5,2.1-4.6,4.6-4.6s4.6,2.1,4.6,4.6V541.6z"/>
	<path class="st6" d="M163.2,541.6c0,2.5-2.1,4.6-4.6,4.6s-4.6-2.1-4.6-4.6v-5.9c0-2.5,2.1-4.6,4.6-4.6s4.6,2.1,4.6,4.6V541.6z"/>
	<path class="st6" d="M130.4,284.3c0,2.5-2.1,4.6-4.6,4.6c-2.5,0-4.6-2.1-4.6-4.6v-5.9c0-2.5,2.1-4.6,4.6-4.6c2.5,0,4.6,2.1,4.6,4.6
		V284.3z"/>
	<path class="st6" d="M159,284.3c0,2.5-2.1,4.6-4.6,4.6s-4.6-2.1-4.6-4.6v-5.9c0-2.5,2.1-4.6,4.6-4.6s4.6,2.1,4.6,4.6V284.3z"/>
</g>
<g id="Bones_lower_extremities">
	<path class="st3" d="M98.7,705L98.7,705c3.5,0.2,6.5-2.4,6.7-5.9l7.8-112.4c0.2-3.5-2.4-6.5-5.9-6.7h0c-3.5-0.2-6.5,2.4-6.7,5.9
		l-7.8,112.4C92.6,701.7,95.2,704.8,98.7,705z"/>
	<path class="st3" d="M102.3,584.7L102.3,584.7c-2.8-0.2-4.9-2.6-4.7-5.4l0,0c0.2-2.8,2.6-4.9,5.4-4.7h0c2.8,0.2,4.9,2.6,4.7,5.4
		l0,0C107.5,582.8,105.1,584.9,102.3,584.7z"/>
	<path class="st3" d="M112.4,585.4L112.4,585.4c-2.8-0.2-4.9-2.6-4.7-5.4l0,0c0.2-2.8,2.6-4.9,5.4-4.7h0c2.8,0.2,4.9,2.6,4.7,5.4v0
		C117.6,583.5,115.2,585.6,112.4,585.4z"/>
	<path class="st3" d="M93.8,708.1L93.8,708.1c-2.8-0.2-4.9-2.6-4.7-5.4l0,0c0.2-2.8,2.6-4.9,5.4-4.7l0,0c2.8,0.2,4.9,2.6,4.7,5.4
		l0,0C99,706.1,96.6,708.2,93.8,708.1z"/>
	<path class="st3" d="M103.9,708.7L103.9,708.7c-2.8-0.2-4.9-2.6-4.7-5.4l0,0c0.2-2.8,2.6-4.9,5.4-4.7h0c2.8,0.2,4.9,2.6,4.7,5.4v0
		C109.1,706.8,106.6,708.9,103.9,708.7z"/>
	<path class="st3" d="M171,578.4L171,578.4c3.5-0.2,6.5,2.4,6.7,5.9l7.8,112.4c0.2,3.5-2.4,6.5-5.9,6.7h0c-3.5,0.2-6.5-2.4-6.7-5.9
		l-7.8-112.4C164.9,581.6,167.5,578.6,171,578.4z"/>
	<path class="st3" d="M174.7,698.7L174.7,698.7c-2.8,0.2-4.9,2.6-4.7,5.4v0c0.2,2.8,2.6,4.9,5.4,4.7h0c2.8-0.2,4.9-2.6,4.7-5.4l0,0
		C179.9,700.6,177.4,698.5,174.7,698.7z"/>
	<path class="st3" d="M184.7,698L184.7,698c-2.8,0.2-4.9,2.6-4.7,5.4l0,0c0.2,2.8,2.6,4.9,5.4,4.7l0,0c2.8-0.2,4.9-2.6,4.7-5.4l0,0
		C189.9,699.9,187.5,697.8,184.7,698z"/>
	<path class="st3" d="M166.1,575.3L166.1,575.3c-2.8,0.2-4.9,2.6-4.7,5.4v0c0.2,2.8,2.6,4.9,5.4,4.7h0c2.8-0.2,4.9-2.6,4.7-5.4l0,0
		C171.3,577.3,168.9,575.2,166.1,575.3z"/>
	<path class="st3" d="M176.2,574.6L176.2,574.6c-2.8,0.2-4.9,2.6-4.7,5.4l0,0c0.2,2.8,2.6,4.9,5.4,4.7h0c2.8-0.2,4.9-2.6,4.7-5.4
		l0,0C181.4,576.6,179,574.5,176.2,574.6z"/>
	<path class="st3" d="M99.6,850.7L99.6,850.7c3.5,0,6.3-2.9,6.2-6.4l-1.4-112.7c0-3.5-2.9-6.3-6.4-6.2h0c-3.5,0-6.3,2.9-6.2,6.4
		l1.4,112.7C93.3,847.9,96.1,850.7,99.6,850.7z"/>
	<path class="st3" d="M93.5,730.5L93.5,730.5c-2.8,0-5.1-2.2-5.1-5l0,0c0-2.8,2.2-5.1,5-5.1h0c2.8,0,5.1,2.2,5.1,5v0
		C98.5,728.2,96.3,730.5,93.5,730.5z"/>
	<path class="st3" d="M103.6,730.4L103.6,730.4c-2.8,0-5.1-2.2-5.1-5v0c0-2.8,2.2-5.1,5-5.1h0c2.8,0,5.1,2.2,5.1,5v0
		C108.6,728,106.4,730.3,103.6,730.4z"/>
	<path class="st3" d="M95,854.1L95,854.1c-2.8,0-5.1-2.2-5.1-5l0,0c0-2.8,2.2-5.1,5-5.1h0c2.8,0,5.1,2.2,5.1,5l0,0
		C100,851.8,97.8,854.1,95,854.1z"/>
	<path class="st3" d="M105.1,854L105.1,854c-2.8,0-5.1-2.2-5.1-5l0,0c0-2.8,2.2-5.1,5-5.1h0c2.8,0,5.1,2.2,5.1,5l0,0
		C110.1,851.7,107.9,854,105.1,854z"/>
	<path class="st3" d="M178.8,851.5L178.8,851.5c-3.5,0-6.3-2.9-6.2-6.4l1.4-112.7c0-3.5,2.9-6.3,6.4-6.2l0,0c3.5,0,6.3,2.9,6.2,6.4
		l-1.4,112.7C185.1,848.8,182.3,851.6,178.8,851.5z"/>
	<path class="st3" d="M184.9,731.3L184.9,731.3c2.8,0,5.1-2.2,5.1-5l0,0c0-2.8-2.2-5.1-5-5.1l0,0c-2.8,0-5.1,2.2-5.1,5l0,0
		C179.9,729,182.1,731.3,184.9,731.3z"/>
	<path class="st3" d="M174.8,731.2L174.8,731.2c2.8,0,5.1-2.2,5.1-5l0,0c0-2.8-2.2-5.1-5-5.1h0c-2.8,0-5.1,2.2-5.1,5l0,0
		C169.8,728.9,172,731.2,174.8,731.2z"/>
	<path class="st3" d="M183.4,855L183.4,855c2.8,0,5.1-2.2,5.1-5l0,0c0-2.8-2.2-5.1-5-5.1l0,0c-2.8,0-5.1,2.2-5.1,5l0,0
		C178.3,852.6,180.6,854.9,183.4,855z"/>
	<path class="st3" d="M173.3,854.8L173.3,854.8c2.8,0,5.1-2.2,5.1-5l0,0c0-2.8-2.2-5.1-5-5.1h0c-2.8,0-5.1,2.2-5.1,5l0,0
		C168.3,852.5,170.5,854.8,173.3,854.8z"/>
</g>
<g id="Bones_upper_extremities">
	<path class="st3" d="M219.7,487L219.7,487c3.4-0.4,5.9-3.5,5.5-7l-13-111.9c-0.4-3.4-3.5-5.9-7-5.5h0c-3.4,0.4-5.9,3.5-5.5,7
		l13,111.9C213.1,484.9,216.3,487.4,219.7,487z"/>
	<path class="st3" d="M201.2,368.1L201.2,368.1c-2.8,0.3-5.3-1.7-5.6-4.4l0,0c-0.3-2.8,1.7-5.3,4.4-5.6h0c2.8-0.3,5.3,1.7,5.6,4.4
		l0,0C206,365.2,204,367.8,201.2,368.1z"/>
	<path class="st3" d="M211.2,366.9L211.2,366.9c-2.8,0.3-5.3-1.7-5.6-4.4l0,0c-0.3-2.8,1.7-5.3,4.4-5.6l0,0c2.8-0.3,5.3,1.7,5.6,4.4
		l0,0C216,364.1,214,366.6,211.2,366.9z"/>
	<path class="st3" d="M215.5,490.9L215.5,490.9c-2.8,0.3-5.3-1.7-5.6-4.4v0c-0.3-2.8,1.7-5.3,4.4-5.6h0c2.8-0.3,5.3,1.7,5.6,4.4l0,0
		C220.3,488,218.3,490.5,215.5,490.9z"/>
	<path class="st3" d="M225.5,489.7L225.5,489.7c-2.8,0.3-5.3-1.7-5.6-4.4l0,0c-0.3-2.8,1.7-5.3,4.4-5.6h0c2.8-0.3,5.3,1.7,5.6,4.4v0
		C230.3,486.9,228.3,489.4,225.5,489.7z"/>
	<path class="st3" d="M60.4,487L60.4,487c-3.4-0.4-5.9-3.5-5.5-7l13-111.9c0.4-3.4,3.5-5.9,7-5.5h0c3.4,0.4,5.9,3.5,5.5,7l-13,111.9
		C67,484.9,63.8,487.4,60.4,487z"/>
	<path class="st3" d="M78.9,368.1L78.9,368.1c2.8,0.3,5.3-1.7,5.6-4.4l0,0c0.3-2.8-1.7-5.3-4.4-5.6h0c-2.8-0.3-5.3,1.7-5.6,4.4v0
		C74.1,365.2,76.1,367.8,78.9,368.1z"/>
	<path class="st3" d="M68.8,366.9L68.8,366.9c2.8,0.3,5.3-1.7,5.6-4.4v0c0.3-2.8-1.7-5.3-4.4-5.6h0c-2.8-0.3-5.3,1.7-5.6,4.4l0,0
		C64.1,364.1,66.1,366.6,68.8,366.9z"/>
	<path class="st3" d="M64.6,490.9L64.6,490.9c2.8,0.3,5.3-1.7,5.6-4.4v0c0.3-2.8-1.7-5.3-4.4-5.6h0c-2.8-0.3-5.3,1.7-5.6,4.4l0,0
		C59.8,488,61.8,490.5,64.6,490.9z"/>
	<path class="st3" d="M54.5,489.7L54.5,489.7c2.8,0.3,5.3-1.7,5.6-4.4l0,0c0.3-2.8-1.7-5.3-4.4-5.6h0c-2.8-0.3-5.3,1.7-5.6,4.4l0,0
		C49.8,486.9,51.8,489.4,54.5,489.7z"/>
	<path class="st3" d="M221,598.2L221,598.2c3.5,0,6.3-2.8,6.3-6.3l0.4-84.2c0-3.5-2.8-6.3-6.3-6.3h0c-3.5,0-6.3,2.8-6.3,6.3
		l-0.4,84.2C214.7,595.3,217.5,598.2,221,598.2z"/>
	<path class="st3" d="M216.7,506.4L216.7,506.4c-2.8,0-5-2.3-5-5.1l0,0c0-2.8,2.3-5,5.1-5l0,0c2.8,0,5,2.3,5,5.1l0,0
		C221.8,504.2,219.5,506.4,216.7,506.4z"/>
	<path class="st3" d="M226.8,506.5L226.8,506.5c-2.8,0-5-2.3-5-5.1l0,0c0-2.8,2.3-5,5.1-5l0,0c2.8,0,5,2.3,5,5.1v0
		C231.9,504.2,229.6,506.5,226.8,506.5z"/>
	<path class="st3" d="M216.2,602.1L216.2,602.1c-2.8,0-5-2.3-5-5.1l0,0c0-2.8,2.3-5,5.1-5l0,0c2.8,0,5,2.3,5,5.1l0,0
		C221.2,599.9,219,602.1,216.2,602.1z"/>
	<path class="st3" d="M226.3,602.1L226.3,602.1c-2.8,0-5-2.3-5-5.1l0,0c0-2.8,2.3-5,5.1-5h0c2.8,0,5,2.3,5,5.1l0,0
		C231.3,599.9,229,602.2,226.3,602.1z"/>
	<path class="st3" d="M58.6,598.2L58.6,598.2c-3.5,0-6.3-2.8-6.3-6.3l-0.4-84.2c0-3.5,2.8-6.3,6.3-6.3h0c3.5,0,6.3,2.8,6.3,6.3
		l0.4,84.2C64.9,595.3,62.1,598.2,58.6,598.2z"/>
	<path class="st3" d="M62.8,506.4L62.8,506.4c2.8,0,5-2.3,5-5.1l0,0c0-2.8-2.3-5-5.1-5h0c-2.8,0-5,2.3-5,5.1l0,0
		C57.8,504.2,60.1,506.4,62.8,506.4z"/>
	<path class="st3" d="M52.7,506.5L52.7,506.5c2.8,0,5-2.3,5-5.1l0,0c0-2.8-2.3-5-5.1-5h0c-2.8,0-5,2.3-5,5.1v0
		C47.7,504.2,50,506.5,52.7,506.5z"/>
	<path class="st3" d="M63.4,602.1L63.4,602.1c2.8,0,5-2.3,5-5.1l0,0c0-2.8-2.3-5-5.1-5h0c-2.8,0-5,2.3-5,5.1l0,0
		C58.3,599.9,60.6,602.1,63.4,602.1z"/>
	<path class="st3" d="M53.3,602.1L53.3,602.1c2.8,0,5-2.3,5-5.1v0c0-2.8-2.3-5-5.1-5h0c-2.8,0-5,2.3-5,5.1l0,0
		C48.2,599.9,50.5,602.2,53.3,602.1z"/>
</g>
<g id="Spine_and_x5F_or_spinal_cord">
	<path class="st3" d="M139.6,495.8L139.6,495.8c-3.5,0-6.3-2.8-6.3-6.3V339.8c0-3.5,2.8-6.3,6.3-6.3h0c3.5,0,6.3,2.8,6.3,6.3v149.7
		C145.9,492.9,143.1,495.8,139.6,495.8z"/>
</g>
<g id="Ribcage">
	<path class="st3" d="M183.3,381.4H95.9c-2.3,0-4.2-1.9-4.2-4.2v0c0-2.3,1.9-4.2,4.2-4.2h87.5c2.3,0,4.2,1.9,4.2,4.2v0
		C187.5,379.5,185.6,381.4,183.3,381.4z"/>
	<path class="st3" d="M179.1,398.4h-79c-2.3,0-4.2-1.9-4.2-4.2l0,0c0-2.3,1.9-4.2,4.2-4.2h79c2.3,0,4.2,1.9,4.2,4.2l0,0
		C183.3,396.5,181.4,398.4,179.1,398.4z"/>
	<path class="st3" d="M169.5,449.4h-59.7c-2.3,0-4.2-1.9-4.2-4.2l0,0c0-2.3,1.9-4.2,4.2-4.2h59.7c2.3,0,4.2,1.9,4.2,4.2l0,0
		C173.7,447.5,171.8,449.4,169.5,449.4z"/>
	<path class="st3" d="M166.5,466.3h-53.8c-2.3,0-4.2-1.9-4.2-4.2l0,0c0-2.3,1.9-4.2,4.2-4.2h53.8c2.3,0,4.2,1.9,4.2,4.2l0,0
		C170.7,464.5,168.8,466.3,166.5,466.3z"/>
	<path class="st3" d="M176.6,415.4h-73.9c-2.3,0-4.2-1.9-4.2-4.2l0,0c0-2.3,1.9-4.2,4.2-4.2h73.9c2.3,0,4.2,1.9,4.2,4.2l0,0
		C180.8,413.5,178.9,415.4,176.6,415.4z"/>
	<path class="st3" d="M171.5,432.4h-63.8c-2.3,0-4.2-1.9-4.2-4.2l0,0c0-2.3,1.9-4.2,4.2-4.2h63.8c2.3,0,4.2,1.9,4.2,4.2l0,0
		C175.7,430.5,173.8,432.4,171.5,432.4z"/>
</g>
<g id="Vessel_abdomen">
	<path class="st3" d="M872,468L872,468c-3.3,0-6,2.7-6,6l0,127.1c0,3.3,2.7,6,6,6l0,0c3.3,0,6-2.7,6-6V474
		C878,470.7,875.3,468,872,468z"/>
	<path class="st3" d="M898,474.1L898,474.1c-3.3,0-6,2.7-6,6V601c0,3.3,2.7,6,6,6h0c3.3,0,6-2.7,6-6V480.1
		C904,476.8,901.3,474.1,898,474.1z"/>
</g>
<g id="Vessel_thorax">
	<path class="st3" d="M899,468.1L899,468.1c-3.3,0-6-2.7-6-6V389c0-3.3,2.7-6,6-6l0,0c3.3,0,6,2.7,6,6v73.1
		C905,465.4,902.3,468.1,899,468.1z"/>
	<path class="st3" d="M878.8,426.1L878.8,426.1c3.3,0,6,2.7,6,6v27.1c0,3.3-2.7,6-6,6l0,0c-3.3,0-6-2.7-6-6v-27.1
		C872.8,428.9,875.5,426.1,878.8,426.1z"/>
	<path id="cava_x5F_sup_1_" class="st3" d="M863,431L863,431c-3.3,0-6,2.7-6,6V470c0,3.3,2.7,6,6,6h0c3.3,0,6-2.7,6-6V437
		C869,433.7,866.3,431,863,431z"/>
</g>
<g id="Vessel_head_and_neck">
	<path class="st3" d="M893.1,321.1L893.1,321.1c-3.3,0-6,2.7-6,6l0,27.1c0,3.3,2.7,6,6,6h0c3.3,0,6-2.7,6-6v-27.1
		C899.2,323.9,896.4,321.1,893.1,321.1z"/>
	<path class="st3" d="M865.8,321.1L865.8,321.1c3.3,0,6,2.7,6,6v27.1c0,3.3-2.7,6-6,6l0,0c-3.3,0-6-2.7-6-6v-27.1
		C859.8,323.9,862.5,321.1,865.8,321.1z"/>
</g>
<g id="Brain">
	<path class="st5" d="M502.9,293.1h-33.1c-3.9,0-7-3.1-7-7V267c0-11.5,9.4-21,21-21h19.1c3.9,0,7,3.1,7,7v33.1
		C509.9,290,506.7,293.1,502.9,293.1z"/>
	<path class="st5" d="M523.2,293.1h33.1c3.8,0,7-3.1,7-7V267c0-11.5-9.5-21-21-21h-19.1c-3.8,0-7,3.1-7,7v33.1
		C516.2,290,519.3,293.1,523.2,293.1z"/>
	<path class="st5" d="M522.4,266.9h-20.9c-2,0-3.6-1.6-3.6-3.6l0,0c0-2,1.6-3.6,3.6-3.6h20.9c2,0,3.6,1.6,3.6,3.6l0,0
		C526.1,265.2,524.4,266.9,522.4,266.9z"/>
</g>
<g id="Heart">
	<path class="st7" d="M908.8,481.8c6.5-6.4,6.5-16.7,0-23.1c-6.5-6.4-17-6.4-23.5,0v0L881,463l-4.3-4.2v0c-6.5-6.4-17-6.4-23.5,0
		c-6.5,6.4-6.5,16.7,0,23.1l0,0l4.3,4.2l0,0l23.5,23.1l0,0l0,0l23.5-23.1l0,0L908.8,481.8L908.8,481.8z"/>
</g>
<g id="Lungs">
	<path class="st2" d="M482.3,579.2h-38.9c-5.2,0-9.5-4.3-9.5-9.5V524c0-24.5,20-44.5,44.5-44.5h3.9c5.2,0,9.5,4.3,9.5,9.5v80.7
		C491.7,574.9,487.5,579.2,482.3,579.2z"/>
	<path class="st2" d="M543.3,579.2h38.9c5.2,0,9.5-4.3,9.5-9.5V524c0-24.5-20-44.5-44.5-44.5h-3.9c-5.2,0-9.5,4.3-9.5,9.5v80.7
		C533.8,574.9,538,579.2,543.3,579.2z"/>
</g>
<g id="Trachea">
	<path class="st3" d="M513.2,519.4h-0.9c-3.3,0-6-2.7-6-6v-87.7c0-3.3,2.7-6,6-6h0.9c3.3,0,6,2.7,6,6v87.7
		C519.2,516.6,516.5,519.4,513.2,519.4z"/>
	<path class="st3" d="M549.2,533.3l-0.4,0.8c-1.7,2.9-5.4,3.9-8.3,2.2l-25.9-15c-2.9-1.7-3.9-5.4-2.2-8.3l0.4-0.8
		c1.7-2.9,5.4-3.9,8.3-2.2l25.9,15C549.9,526.7,550.9,530.5,549.2,533.3z"/>
	<path class="st3" d="M476.3,533.3l0.4,0.8c1.7,2.9,5.4,3.9,8.3,2.2l25.9-15c2.9-1.7,3.9-5.4,2.2-8.3l-0.4-0.8
		c-1.7-2.9-5.4-3.9-8.3-2.2l-25.9,15C475.6,526.7,474.6,530.5,476.3,533.3z"/>
</g>
<g id="Neck_organs">
	<path class="st5" d="M521.6,409.1h-17.3c-1.5,0-2.6-1.2-2.6-2.6V404c0-1.5,1.2-2.6,2.6-2.6h17.3c1.5,0,2.6,1.2,2.6,2.6v2.5
		C524.2,408,523,409.1,521.6,409.1z"/>
	<path class="st5" d="M497.2,385.8H496c-0.9,0-1.7-0.8-1.7-1.7v-14.4c0-0.9,0.8-1.7,1.7-1.7h1.2c0.9,0,1.7,0.8,1.7,1.7v14.4
		C498.9,385,498.1,385.8,497.2,385.8z"/>
	<path class="st5" d="M529.8,385.8h-1.2c-0.9,0-1.7-0.8-1.7-1.7v-14.4c0-0.9,0.8-1.7,1.7-1.7h1.2c0.9,0,1.7,0.8,1.7,1.7v14.4
		C531.6,385,530.8,385.8,529.8,385.8z"/>
	<path class="st5" d="M526.9,380.6h-11.4c-0.2,0-0.3,0.2-0.3,0.3l0,0c0,1.2-1,2.1-2.1,2.1h-0.4c-1.2,0-2.1-1-2.1-2.1l0,0
		c0-0.2-0.2-0.3-0.3-0.3h-11.5c-2.5,0-4.5,2-4.5,4.5v7.1c0,6.7,5.5,12.2,12.2,12.2h12.6c6.7,0,12.2-5.5,12.2-12.2v-7.1
		C531.4,382.6,529.4,380.6,526.9,380.6z"/>
	<path class="st5" d="M512.6,358.2h-7.4c-0.1,0-0.2,0-0.2-0.1l-12.5-12.5c-0.8-0.8-2.2-0.8-3,0l-0.3,0.3c-0.8,0.8-0.8,2.2,0,3
		l13.4,13.4c0.4,0.4,0.9,0.5,1.4,0.5c0,0,0.1,0,0.1,0h8.5c0.2,0,0.3-0.2,0.3-0.3v-4C512.9,358.4,512.8,358.2,512.6,358.2z"/>
	<path class="st5" d="M536.6,345.9l-0.3-0.3c-0.8-0.8-2.2-0.8-3,0l-12.5,12.5c-0.1,0.1-0.1,0.1-0.2,0.1h-7.4c-0.2,0-0.3,0.2-0.3,0.3
		v4c0,0.2,0.2,0.3,0.3,0.3h8.5c0,0,0.1,0,0.1,0c0.5,0,1-0.1,1.4-0.5l13.4-13.4C537.4,348.1,537.4,346.8,536.6,345.9z"/>
</g>
</svg>
